<?xml version="1.0" encoding="iso-8859-1"?>
<!-- Generator: Adobe Illustrator 17.0.2, SVG Export Plug-In . SVG Version: 6.00 Build 0)  -->
<!DOCTYPE svg PUBLIC "-//W3C//DTD SVG 1.1//EN" "http://www.w3.org/Graphics/SVG/1.1/DTD/svg11.dtd">
<svg version="1.1" id="Layer_1" xmlns="http://www.w3.org/2000/svg" xmlns:xlink="http://www.w3.org/1999/xlink" x="0px" y="0px"
	 width="612px" height="239.204px" viewBox="0 277.531 612 239.204" style="enable-background:new 0 277.531 612 239.204;"
	 xml:space="preserve">
<g>
	<g>
		<path style="fill:#FFFFFF;" d="M0,516.735c0-28.359,0-56.654,0-85.068c23.874,0,47.681,0,71.581,0c0-10.011,0-19.905,0-29.899
			c-2.952,0-5.863,0-8.862,0c0-2.431,0-4.765,0-7.195c3.425,0,6.87,0,10.482,0c0,12.315,0,24.61,0,37.082c0.695,0,1.224,0,1.752,0
			c12.54,0,25.078-0.009,37.617,0.024c0.797,0.002,1.663,0.207,2.377,0.562c6.292,3.113,12.554,6.289,18.838,9.423
			c0.505,0.251,1.097,0.459,1.649,0.46c9.948,0.027,19.895,0.021,29.843,0.018c0.205,0,0.412-0.034,0.806-0.066
			c0-1.299,0.063-2.591-0.02-3.873c-0.068-1.057,0.3-1.343,1.338-1.339c10.575,0.036,21.149,0.022,31.723,0.022
			c0.495,0,0.991,0,1.637,0c0-4.247,0-8.387,0-12.598c5.313,0,10.474,0,15.79,0c0,4.169,0,8.306,0,12.52c5.181,0,10.209,0,15.338,0
			c0-1.689,0-3.315,0-5.107c6.792,0,13.487,0,20.407,0c-0.23-0.419-0.333-0.62-0.447-0.814c-0.949-1.628-0.974-3.067,0.409-4.358
			c1.324-1.236,2.919-2.204,4.481-3.144c0.716-0.431,1.098-0.774,1.092-1.687c-0.043-7.321-0.013-14.641-0.047-21.961
			c-0.002-0.528-0.216-1.155-0.543-1.563c-1.494-1.865-1.573-3.746,0.384-5.151c2.043-1.467,4.389-2.532,6.679-3.608
			c0.838-0.392,1.219-0.706,1.201-1.684c-0.065-3.448-0.001-6.9-0.054-10.349c-0.006-0.449-0.286-1.059-0.64-1.313
			c-2.609-1.871-2.576-3.307,0.186-4.966c0.25-0.15,0.497-0.302,0.815-0.495c-1.129-3.318,0.737-5.315,3.142-7.051
			c0.508-0.366,1.023-0.794,1.602-0.976c2.079-0.649,2.575-1.996,2.727-4.157c0.876-12.471,7.018-21.55,18.024-27.297
			c0.624-0.326,0.824-0.67,0.807-1.344c-0.045-1.717-0.016-3.435-0.016-5.273c1.694,0,3.303,0,5.099,0c0-7.612,0-15.107,0-22.702
			c1.051,0,1.914,0,2.887,0c0-1.345,0-2.592,0-3.994c1.003,0,1.899,0,2.946,0c0-2.117,0.042-4.085-0.046-6.047
			c-0.013-0.289-0.633-0.552-1.147-0.97c0-3.165,0-6.595,0-10.121c0.704-0.047,1.355-0.089,2.183-0.145
			c0-0.732-0.057-1.438,0.026-2.127c0.038-0.309,0.355-0.585,0.546-0.874c0.163,0.276,0.438,0.54,0.467,0.828
			c0.068,0.697,0.022,1.406,0.022,2.171c0.782,0.051,1.431,0.093,2.167,0.141c0,3.478,0,6.904,0,10.427
			c-1.037-0.064-1.258,0.504-1.211,1.464c0.083,1.671,0.023,3.351,0.023,5.162c0.951,0,1.807,0,2.838,0c0,1.4,0,2.671,0,4.043
			c1.039,0,1.902,0,2.898,0c0,7.569,0,15.036,0,22.659c2.102,0,4.08,0,6.212,0c0,1.864,0.03,3.573-0.016,5.281
			c-0.02,0.723,0.209,1.105,0.872,1.444c9.997,5.135,15.919,13.305,17.765,24.438c0.274,1.649,0.31,3.35,0.329,5.027
			c0.009,0.815,0.212,1.251,0.956,1.651c1.207,0.65,2.377,1.413,3.438,2.283c1.727,1.419,2.695,3.211,2.039,5.591
			c0.882,0.52,1.779,0.959,2.576,1.54c1.712,1.245,1.703,2.577,0.047,3.871c-0.099,0.077-0.195,0.178-0.308,0.212
			c-2.054,0.615-2.231,2.145-2.135,4.001c0.133,2.559,0.077,5.132,0.01,7.695c-0.024,0.935,0.326,1.27,1.157,1.588
			c2.061,0.788,4.071,1.709,6.079,2.631c0.521,0.24,0.98,0.643,1.421,1.026c2.329,2.021,2.35,4.22-0.11,6.095
			c-1.028,0.784-1.329,1.58-1.319,2.823c0.062,6.477,0.046,12.957,0.009,19.437c-0.005,0.89,0.274,1.291,1.09,1.666
			c1.625,0.746,3.255,1.556,4.708,2.589c2.546,1.813,2.822,3.418,1.289,6.277c6.398,0,12.725,0,19.2,0c0,1.792,0,3.452,0,5.2
			c5.342,0,10.534,0,15.839,0c0-4.16,0-8.265,0-12.473c5.301,0,10.49,0,15.798,0c0,4.144,0,8.25,0,12.519
			c11.787,0,23.461,0,35.269,0c0,1.819,0,3.477,0,5.308c0.577,0,1.019,0,1.46,0c7.858,0,15.715,0.013,23.573-0.022
			c0.719-0.003,1.497-0.177,2.146-0.488c6.407-3.067,12.779-6.207,19.197-9.252c0.939-0.446,2.064-0.694,3.103-0.697
			c15.549-0.043,31.097-0.031,46.645-0.031c0.537,0,1.071,0,1.689,0c0-9.985,0-19.852,0-29.862c-2.915,0-5.857,0-8.879,0
			c0-2.475,0-4.808,0-7.228c3.452,0,6.897,0,10.509,0c0,12.337,0,24.634,0,37.057c22.929,0,45.692,0,68.547,0
			c0,28.422,0,56.714,0,85.111C408.059,516.735,204.081,516.735,0,516.735z M299.834,471.001c3.059,0,6.035,0,9.005,0
			c0-9.493,0-18.888,0-28.297c-3.043,0-6.016,0-9.005,0C299.834,452.19,299.834,461.584,299.834,471.001z M327.371,471.029
			c0-9.493,0-18.916,0-28.36c-3.037,0-5.987,0-8.989,0c0,9.483,0,18.911,0,28.36C321.429,471.029,324.376,471.029,327.371,471.029z
			 M336.9,471.009c3.056,0,6.031,0,9.04,0c0-9.483,0-18.877,0-28.316c-3.046,0-6.024,0-9.04,0
			C336.9,452.166,336.9,461.558,336.9,471.009z M262.768,442.655c0,9.516,0,18.911,0,28.372c3.024,0,5.966,0,8.946,0
			c0-9.497,0-18.923,0-28.372C268.707,442.655,265.793,442.655,262.768,442.655z M290.268,471.027c0-9.489,0-18.916,0-28.339
			c-3.039,0-5.988,0-8.964,0c0,9.473,0,18.871,0,28.339C284.329,471.027,287.273,471.027,290.268,471.027z M30.648,471.028
			c0-9.551,0-18.942,0-28.308c-2.233,0-4.374,0-6.489,0c0,9.496,0,18.885,0,28.308C26.364,471.028,28.473,471.028,30.648,471.028z
			 M579.9,442.671c0,9.51,0,18.9,0,28.329c2.221,0,4.36,0,6.52,0c0-9.49,0-18.881,0-28.329
			C584.231,442.671,582.116,442.671,579.9,442.671z M548.07,442.678c0,9.516,0,18.935,0,28.328c2.226,0,4.333,0,6.489,0
			c0-9.482,0-18.871,0-28.328C552.376,442.678,550.262,442.678,548.07,442.678z M516.191,442.677c0,9.517,0,18.934,0,28.327
			c2.215,0,4.32,0,6.477,0c0-9.484,0-18.873,0-28.327C520.488,442.677,518.375,442.677,516.191,442.677z M533.266,471.033
			c0-9.554,0-18.955,0-28.345c-2.206,0-4.319,0-6.466,0c0,9.479,0,18.884,0,28.345C528.993,471.033,531.102,471.033,533.266,471.033
			z M94.379,471.033c0-9.554,0-18.955,0-28.345c-2.206,0-4.318,0-6.466,0c0,9.479,0,18.884,0,28.345
			C90.105,471.033,92.215,471.033,94.379,471.033z M77.259,471.001c2.264,0,4.369,0,6.519,0c0-9.487,0-18.876,0-28.303
			c-2.213,0-4.354,0-6.519,0C77.259,452.171,77.259,461.559,77.259,471.001z M56.042,470.993c2.228,0,4.367,0,6.492,0
			c0-9.496,0-18.887,0-28.329c-2.19,0-4.304,0-6.492,0C56.042,452.129,56.042,461.554,56.042,470.993z M45.406,442.647
			c0,9.521,0,18.922,0,28.386c2.184,0,4.294,0,6.464,0c0-9.489,0-18.922,0-28.386C49.685,442.647,47.603,442.647,45.406,442.647z
			 M558.683,442.654c0,9.512,0,18.909,0,28.376c2.19,0,4.297,0,6.446,0c0-9.495,0-18.923,0-28.376
			C562.961,442.654,560.882,442.654,558.683,442.654z M569.289,442.653c0,9.516,0,18.911,0,28.375c2.172,0,4.278,0,6.44,0
			c0-9.492,0-18.912,0-28.375C573.553,442.653,571.476,442.653,569.289,442.653z M590.561,442.653c0,9.51,0,18.905,0,28.372
			c2.176,0,4.28,0,6.439,0c0-9.486,0-18.909,0-28.372C594.838,442.653,592.763,442.653,590.561,442.653z M543.917,442.687
			c-2.24,0-4.347,0-6.449,0c0,9.496,0,18.917,0,28.302c2.21,0,4.312,0,6.449,0C543.917,461.515,543.917,452.151,543.917,442.687z
			 M73.118,471.033c0-9.488,0-18.91,0-28.346c-2.197,0-4.305,0-6.404,0c0,9.496,0,18.918,0,28.346
			C68.901,471.033,70.974,471.033,73.118,471.033z M41.24,471.027c0-9.494,0-18.917,0-28.334c-2.2,0-4.308,0-6.432,0
			c0,9.476,0,18.869,0,28.334C36.988,471.027,39.092,471.027,41.24,471.027z M13.509,471.015c2.239,0,4.347,0,6.513,0
			c0-9.48,0-18.876,0-28.308c-2.212,0-4.352,0-6.513,0C13.509,452.17,13.509,461.54,13.509,471.015z M270.862,417.108
			c0.514-0.081,0.84-0.191,1.16-0.174c1.433,0.078,1.756-0.597,1.736-1.979c-0.084-5.799-0.036-11.599-0.036-17.399
			c0-0.442,0-0.882,0-1.429c-0.563,0.084-0.928,0.194-1.291,0.183c-1.31-0.035-1.63,0.601-1.6,1.862
			c0.085,3.654,0.03,7.311,0.03,10.969C270.862,411.741,270.862,414.342,270.862,417.108z M315.177,414.813
			c0-7.026,0-13.94,0-20.923c-0.949,0-1.798,0-2.631,0c0,7.017,0,13.937,0,20.923C313.453,414.813,314.273,414.813,315.177,414.813z
			 M304.125,414.592c0-7.037,0-13.955,0-20.902c-0.926,0-1.774,0-2.65,0c0,7.009,0,13.927,0,20.902
			C302.369,414.592,303.189,414.592,304.125,414.592z M293.347,414.836c0-7.065,0-13.964,0-20.952
			c-0.938,0.09-1.76,0.169-2.611,0.25c0,6.974,0,13.871,0,20.863C291.656,414.941,292.476,414.891,293.347,414.836z
			 M341.855,417.185c0.887,0.126,1.768,0.25,2.621,0.372c0.082-0.199,0.141-0.277,0.141-0.353
			c0.013-5.969,0.027-11.937,0.005-17.906c-0.001-0.281-0.288-0.714-0.543-0.811c-0.687-0.262-1.427-0.381-2.224-0.576
			C341.855,404.329,341.855,410.626,341.855,417.185z M323.005,394.579c0,6.986,0,13.852,0,20.758
			c0.93,0.068,1.775,0.133,2.666,0.198c0-6.947,0-13.747,0-20.646C324.784,394.786,323.934,394.687,323.005,394.579z
			 M280.859,415.706c0.478-0.024,0.765-0.034,1.052-0.057c1.764-0.138,1.764-0.139,1.764-1.952c0-5.805,0-11.61,0-17.415
			c0-0.482,0-0.963,0-1.481c-0.556,0.04-0.891,0.105-1.219,0.08c-1.301-0.095-1.656,0.48-1.629,1.775
			c0.087,4.247,0.032,8.497,0.032,12.745C280.859,411.456,280.859,413.509,280.859,415.706z M261.807,418.974
			c0.946-0.22,1.813-0.422,2.683-0.625c0-6.851,0-13.597,0-20.495c-0.952,0.222-1.817,0.422-2.683,0.624
			C261.807,405.333,261.807,412.081,261.807,418.974z M333.058,396.028c0,6.793,0,13.423,0,20.173
			c0.895,0.081,1.744,0.158,2.658,0.241c0-6.722,0-13.3,0-19.931C334.834,396.35,334.022,396.203,333.058,396.028z M295.369,381.249
			c0.938-0.058,1.79-0.109,2.651-0.163c0-3.497,0-6.875,0-10.391c-0.929,0.057-1.775,0.107-2.651,0.16
			C295.369,374.363,295.369,377.737,295.369,381.249z M273.66,373.952c-0.517,0.111-0.95,0.237-1.391,0.295
			c-1.094,0.145-1.554,0.681-1.432,1.847c0.113,1.08,0.024,2.183,0.024,3.274c0,1.531,0,3.063,0,4.716
			c1.086-0.225,1.957-0.407,2.798-0.582C273.66,380.251,273.66,377.155,273.66,373.952z M286.874,371.518c0,3.472,0,6.813,0,10.289
			c0.929-0.085,1.782-0.164,2.66-0.245c0-3.474,0-6.859,0-10.306C288.639,371.345,287.821,371.424,286.874,371.518z M305.53,380.951
			c0-3.469,0-6.836,0-10.224c-0.92,0-1.739,0-2.624,0c0,3.428,0,6.796,0,10.224C303.798,380.951,304.617,380.951,305.53,380.951z
			 M281.46,382.359c0-3.396,0-6.681,0-10.066c-0.951,0.171-1.792,0.324-2.625,0.473c0,3.382,0,6.638,0,9.97
			C279.775,382.602,280.624,382.48,281.46,382.359z M311.186,370.906c0,3.471,0,6.764,0,10.145c0.928,0,1.776,0,2.652,0
			c0-3.331,0-6.587,0-9.91C312.954,371.062,312.132,370.989,311.186,370.906z M321.363,381.547c0-3.34,0-6.463,0-9.689
			c-0.902-0.089-1.747-0.172-2.669-0.264c0,3.323,0,6.488,0,9.794C319.579,381.44,320.429,381.491,321.363,381.547z
			 M326.233,372.554c0,3.211,0,6.255,0,9.391c0.916,0.077,1.761,0.148,2.652,0.223c0-3.145,0-6.152,0-9.195
			C328.003,372.834,327.183,372.705,326.233,372.554z M334.522,374.021c0,3.008,0,5.878,0,8.833c0.927,0.099,1.77,0.189,2.629,0.28
			c0-2.944,0-5.738,0-8.573C336.274,374.38,335.464,374.214,334.522,374.021z"/>
	</g>
</g>
</svg>
