<svg xmlns="http://www.w3.org/2000/svg" width="460" height="318.667" viewBox="0 0 460 318.667"><path d="M300.174 22.439c-40.948 0-77.713 17.79-103.027 46.093h-168.38v184.321h168.38c25.314 28.288 62.079 46.081 103.027 46.081 76.364 0 138.261-61.876 138.261-138.246s-61.897-138.249-138.261-138.249zm-189.48 76.797h65.605c-6.291 12.648-10.716 26.439-12.878 40.978h-52.728v-40.978zm0 122.899v-51.199h51.632c1.331 18.289 6.22 35.56 13.974 51.199h-65.606z" clip-rule="evenodd" stroke="#fff" stroke-width="24.694" fill="none"/><path d="M161.908 160.688c0-76.37 61.909-138.249 138.267-138.249 76.364 0 138.261 61.879 138.261 138.249s-61.896 138.246-138.261 138.246c-76.358 0-138.267-61.876-138.267-138.246z" fill-rule="evenodd" clip-rule="evenodd" fill="#ED1C24"/><path fill-rule="evenodd" clip-rule="evenodd" d="M28.767 68.532h230.441v30.704h-148.514v40.978h143.376v30.721h-143.376v51.2h148.514v30.718h-230.441z"/><g fill-rule="evenodd" clip-rule="evenodd" fill="#fff"><path d="M289.93 68.532v81.912h15.353v-30.737h10.259v-15.347h-10.259v-20.498h15.356v-15.33zM289.93 170.935v81.918h15.353v-30.718h10.259v-15.369h-10.259v-20.486h15.356v-15.345z"/></g></svg>