<svg xmlns="http://www.w3.org/2000/svg" width="668.056" height="452.778" viewBox="0 0 668.056 452.778"><path d="M172.993 186.276h67.697c2.633-12.386 6.353-24.353 11.128-35.792h-78.825v35.792zM172.993 306.902h78.809c-6.672-16.018-11.355-33.056-13.745-50.84h-65.064v50.84zM379.401 319.176h-218.68200000000002v-75.388h211.117v-45.238h-211.11700000000002v-60.341h218.68200000000002v-45.21h-339.315v271.406h339.315z" fill="none"/><path d="M439.721 25.131c-54.108 0-103.225 21.164-139.689 55.594h-272.22v295.954h272.233c36.46 34.426 85.573 55.582 139.676 55.582 112.447 0 203.586-91.115 203.586-203.565s-91.139-203.565-203.586-203.565zm-60.32 113.078h-218.68200000000002v60.341h211.11700000000002v45.238h-211.117v75.388h218.68099999999998v45.229h-339.314v-271.406h339.31399999999996v45.21zm-127.582 12.275c-4.775 11.439-8.495 23.406-11.128 35.792h-67.697v-35.792h78.825zm-.017 156.418h-78.809v-50.84h65.064c2.39 17.784 7.073 34.822 13.745 50.84zm218.054-40.52h-22.611v30.163h15.107v22.631h-15.107v45.229h-22.607v-120.617h45.218v22.594zm0-150.808h-22.611v30.183h15.107v22.599h-15.107v45.258h-22.607v-120.615h45.218v22.575z" fill="#fff"/></svg>