<?xml version="1.0" encoding="iso-8859-1"?>
<!-- Generator: Adobe Illustrator 17.0.2, SVG Export Plug-In . SVG Version: 6.00 Build 0)  -->
<!DOCTYPE svg PUBLIC "-//W3C//DTD SVG 1.1//EN" "http://www.w3.org/Graphics/SVG/1.1/DTD/svg11.dtd">
<svg version="1.1" id="Layer_1" xmlns="http://www.w3.org/2000/svg" xmlns:xlink="http://www.w3.org/1999/xlink" x="0px" y="0px"
	 width="311px" height="264.75px" viewBox="142.5 262.5 311 264.75" style="enable-background:new 142.5 262.5 311 264.75;"
	 xml:space="preserve">
<g>
	<path style="fill:#FFFFFF;" d="M301.458,391.164c0-6.735-5.479-12.214-12.214-12.214s-12.214,5.479-12.214,12.214v10.086h24.428
		L301.458,391.164L301.458,391.164z"/>
	<path style="fill:#FFFFFF;" d="M441.744,492l-44-62.25c0,0-5.564,10.537-12.303,23.298l-30.674-16.643
		c2.064-6.438,3.189-13.291,3.189-20.405c0-23.416-12.09-44.049-30.346-56.022l19.351-37.004l13.782,7.276l2.75-54l-43,32.75
		l14.087,7.438l-19.417,37.131c-7.504-2.915-15.649-4.532-24.17-4.532c-24.571,0-46.081,13.312-57.731,33.094l-37.672-20.168
		l8.903-14.795l-33.667,7.333l11,30.333l9.117-15.15l38.273,20.49c-3.336,7.951-5.186,16.677-5.186,25.826
		c0,13.514,4.037,26.097,10.95,36.631l-39.333,22.137l-4.654-8.518l-19.5,26.5l32.75-2.25l-5.719-10.467l39.994-22.51
		c4.834,6.096,10.697,11.337,17.336,15.446l-12.702,23.287l-4.909-2.507l3.5,21.25l20-9.25l-6.118-3.124l12.855-23.568
		c7.04,2.521,14.617,3.904,22.513,3.904c21.228,0,40.167-9.94,52.444-25.398l30.8,16.711c-6.593,12.492-12.05,22.837-12.243,23.226
		L441.744,492z M320.245,450.25L320.245,450.25h-62.001v-49h8.386v-10.086c0-12.469,10.145-22.614,22.614-22.614
		c12.469,0,22.614,10.145,22.614,22.614v10.086h8.387V450.25z"/>
</g>
</svg>
